<svg width="309" height="361" viewBox="0 0 309 361" fill="none" xmlns="http://www.w3.org/2000/svg">
<path d="M46.1673 217.057C45.2475 214.613 42.7035 209.332 39.8852 207.759C36.3623 205.792 23.3866 192.375 22.8246 187.486C22.1806 184.144 22.5537 176.85 29.1983 174.411C32.3805 172.047 41.0376 170.029 50.2084 180.863C50.629 179.813 51.1387 177.258 49.8118 175.435C48.1533 173.157 43.8203 167.111 42.0175 166.262C40.2147 165.414 22.6387 149.699 23.712 142.365C23.1712 138.367 23.7343 129.815 30.3127 127.591C33.9092 125.158 43.4737 123.32 52.9601 135.43C55.6897 139.019 61.2032 146.981 61.4203 150.114C62.0834 150.514 63.3928 150.601 63.325 147.751C63.2402 144.188 55.8766 126.893 53.0367 123.663C50.1968 120.433 34.9602 101.9 35.3505 95.8293C34.8034 92.8119 34.6865 85.8982 38.5959 82.3826C43.4826 77.988 49.5719 75.4366 55.3324 77.7952C60.4502 79.367 71.4121 84.561 74.3168 92.7632C74.5169 92.4316 74.9497 90.8942 75.0804 87.3972C75.2438 83.0259 79.9952 57.9563 93.896 57.8038C99.9032 56.7993 112.98 58.2411 117.23 72.0444C118.904 77.4712 121.28 90.1485 117.389 97.4428C117.244 97.5948 117.24 97.9276 118.384 98.0431C119.813 98.1873 131.084 99.88 134.278 106.756C135.598 108.537 138.015 113.21 137.122 117.652C136.006 123.204 130.333 128.241 124.326 130.523C118.319 132.805 107.88 136.084 106.472 136.831C105.063 137.577 88.6386 144.029 83.773 149.314C82.3166 150.537 79.3626 153.501 79.198 155.573C80.3165 155.131 82.8516 154.042 84.0444 153.23C85.5355 152.214 98.9146 145.122 106.622 146.899C110.137 147.291 117.467 149.404 118.663 154.723C119.976 157.485 121.63 164.065 117.738 168.293C116.04 170.621 110.57 175.701 102.267 177.396C97.7434 178.32 97.0364 178.537 97.8661 178.453C99.3377 178.232 100.699 178.026 101.832 177.852C100.324 178.104 98.5591 178.384 97.8661 178.453C91.5748 179.399 83.2668 180.611 82.1117 180.639C80.3301 180.681 74.4275 183.585 72.0265 187.563C74.45 187.03 79.5126 186.031 80.3746 186.295C81.452 186.626 92.8882 187.78 93.3059 194.098C94.6823 198.255 95.6497 207.198 88.508 209.721C85.4842 211.249 77.4437 214.459 69.4723 215.076C66.655 215.292 60.6517 215.964 59.1772 216.926C57.3341 218.128 57.438 218.75 55.843 219.144C54.248 219.539 49.4419 219.831 46.1673 217.057Z" fill="#F1C376"/>
<path d="M26.8434 233.076C22.0127 249.952 37.2381 279.924 44.3435 292.193C47.1374 293.652 52.3004 304.194 81.7565 313.159C105.321 320.331 136.666 298.808 149.393 287.15C135.662 282.118 111.607 256.004 111.899 255.444C112.133 254.996 120.015 258.969 123.927 261.012C143.639 269.025 166.536 265.674 175.52 262.997C190.953 258.504 207.28 244.4 213.515 237.91C190.482 226.451 180.997 211.655 179.134 205.69C182.514 206.029 207.42 216.897 217.212 221.298C225.046 224.819 230.64 222.368 232.459 220.702C254.702 202.08 268.313 159.314 272.338 140.258C277.382 124.065 277.239 94.5596 276.538 81.8313C273.132 82.9053 254.062 81.742 244.953 81.026C218.372 84.2598 217.674 92.3157 214.754 96.6339C211.574 101.337 210.675 103.537 209.247 104.455C205.921 101.292 207.144 96.2254 191.685 93.1436C176.225 90.0618 167.578 99.8094 156.749 105.565C148.086 110.169 142.373 119.927 140.599 124.231C138.764 131.831 145.284 145.22 145.816 146.925C146.348 148.629 147.972 152.33 146.029 150.602C144.087 148.874 134.374 140.236 122.586 136.932C110.798 133.629 89.5401 153.906 81.0798 168.743C72.6195 183.581 78.688 206.006 79.7526 209.415C80.6043 212.142 79.3094 212.987 78.5555 213.068C74.3955 209.232 64.7981 200.463 59.6889 196.083C53.3025 190.608 47.9277 191.367 43.9101 194.974C37.4202 200.801 28.5412 218.931 26.8434 233.076Z" fill="#4D5A4F"/>
<path d="M236.45 104.116C234.508 102.389 231.878 98.1628 236.902 95.0809C243.181 91.2285 243.768 105.085 236.45 104.116Z" fill="#F7E6C4"/>
<path d="M34.082 288.691C35.0185 286.898 177.509 172.941 248.638 116.187C253.64 114.235 250.066 120.261 247.654 123.518C243.291 130.511 51.0579 286.146 42.7831 291.096C34.5084 296.045 32.9115 290.932 34.082 288.691Z" fill="#F7E6C4"/>
<path d="M56.3209 216.15C52.9372 228.076 65.7329 235.805 72.5536 238.178C75.9859 235.692 70.4244 231.361 65.2086 223.645C61.0359 217.472 57.5448 216.076 56.3209 216.15Z" fill="#F7E6C4"/>
<path d="M117.153 282.153C122.091 283.591 121.694 280.721 120.878 279.106C118.429 274.262 104.725 267.818 101.639 266.919C98.5522 266.02 97.4081 266.849 96.5036 269.943C95.5992 273.036 110.979 280.355 117.153 282.153Z" fill="#F7E6C4"/>
<path d="M122.094 184.175C128.502 191.516 128.205 184.277 127.256 179.739C125.916 175.949 122.023 166.88 117.17 160.921C112.316 154.963 111.369 159.318 111.502 162.241C112.363 166.494 115.686 176.835 122.094 184.175Z" fill="#F7E6C4"/>
<path d="M186.056 128.433C189.973 136.184 192.212 131.172 192.841 127.698C193.134 127.137 192.931 122.895 189.78 110.409C186.628 97.9226 184.138 105.323 183.287 110.584C182.578 113.304 182.139 120.682 186.056 128.433Z" fill="#F7E6C4"/>
<path d="M224.242 168.345C216.387 165.955 219.018 171.085 221.316 173.949C232.438 182.611 238.984 179.61 238.452 177.906C237.919 176.202 234.061 171.334 224.242 168.345Z" fill="#F7E6C4"/>
<path d="M175.873 235.084C182.834 237.008 180.335 232.898 178.215 230.602C171.296 223.422 158.657 220.387 158.311 223.773C157.965 227.158 167.172 232.68 175.873 235.084Z" fill="#F7E6C4"/>
</svg>
