<svg width="597" height="553" viewBox="0 0 597 553" fill="none" xmlns="http://www.w3.org/2000/svg">
<path d="M452.395 162.996C454.063 177.706 465.844 188.443 471.527 191.973C471.488 200.667 470.312 216.076 465.917 208.159C461.522 200.243 443.198 185.828 434.584 179.61C403.766 161.816 394.961 192.595 403.083 206.997C409.58 218.518 443.709 227.214 459.961 230.122L440.03 272.408C441.861 275.707 443.752 279.937 436.668 270.467C427.812 258.63 389.455 221.542 373.216 245.787C360.225 265.183 370.428 280.379 379.394 285.555C399.761 297.315 416.181 299.482 425.472 297.624C419.554 310.893 407.452 336.082 406.384 330.684C405.05 323.936 391.238 307.744 368.264 294.48C349.885 283.868 330.591 287.264 329.011 296.472C331.043 344.714 384.715 348.805 389.758 351.717C393.793 354.046 372.98 376.895 362.069 388.029C361.79 384.63 357.331 374.236 341.73 359.849C322.228 341.866 300.409 346.342 293.701 367.982C288.505 384.747 322.194 403.608 341.821 411.453L267.645 488.168L289.695 492.68L355.269 419.218C365.973 448.558 387.936 454.515 392.182 456.219C396.428 457.923 420.009 461.078 417.97 432.257C415.932 403.437 363.49 393.332 370.474 392.882C376.062 392.521 393.503 369.817 401.525 358.51C439.299 400.491 466.722 387.933 476.941 381.879C487.16 375.826 474.255 354.18 460.16 347.536C448.884 342.221 425.215 337.322 414.79 335.536L433.877 302.476C437.605 306.372 450.669 316.355 473.101 325.122C495.533 333.89 505.154 323.954 507.161 317.89C510.267 311.216 511.29 295.47 490.53 285.875C469.771 276.28 451.876 279.497 445.523 282.304L470.157 229.285C499.636 255.868 516.97 247.845 521.951 240.511C526.249 236.517 532.566 224.972 523.448 210.743C514.33 196.513 489.918 201.097 478.851 205.167L480.279 191.049C488.541 191.834 507.207 188.665 515.766 169.698C526.465 145.991 510.995 123.611 492.331 115.823C477.399 109.593 465.37 120.679 461.222 127.001C452.132 135.499 451.55 154.539 452.395 162.996Z" fill="#F1C376"/>
<path d="M270.734 173.027C266.578 178.321 255.24 201.516 250.098 213.626L261.225 208.515C270.928 204.574 303.811 205.359 319.541 206.337C354.136 210.751 382.055 227.943 379.678 258.058C377.3 288.174 339.569 289.393 323.89 293.285C308.211 297.177 262.084 287.245 249.945 283.992L227.944 278.097L215.401 324.911C217.322 323.807 225.961 321.914 245.14 323.168C269.114 324.736 318.629 337.195 347.863 355.548C377.097 373.902 370.016 400.329 351.707 414.037C333.397 427.744 300.623 416.534 287.726 413.079L238.413 399.865C218.03 400.068 225.262 424.666 222.43 435.237C219.597 445.808 235.327 475.11 235.529 486.494C235.691 495.601 224.536 499.194 218.939 499.853C209.633 500.596 205.776 490.21 202.046 483.996C197.11 478.142 176.39 469.388 167.058 462.841C149.685 459.805 129.721 448.431 123.044 445.024C87.9943 427.135 89.3601 410.911 94.9743 401.085C109.865 384.358 138.168 391.618 150.458 397.339C164.316 400.243 179.489 416.448 180.501 412.672C181.512 408.897 169.222 391.037 162.091 384.27C156.386 378.857 106.27 348.812 81.9259 334.466C44.1346 315.276 41.6666 286.452 45.1565 274.438C57.2956 229.135 107.317 257.914 122.793 266.917C135.175 274.119 162.176 297.971 174.129 308.997C176.759 296.753 127.716 248.543 102.866 225.969C71.2251 193.536 74.0038 159.698 79.3483 146.833C82.8727 138.738 95.6567 124.206 118.598 130.842C146.751 136.44 179.458 195.046 188.191 201.894C195.717 207.795 192.136 201.333 189.405 197.364C178.399 180.172 180.335 136.126 182.679 116.253C185.673 90.5108 197.794 58.7314 212.116 48.8779C244.728 29.13 268.198 38.751 278.221 47.9774C310.127 73.4547 299.007 119.098 298.147 125.342C297.288 131.586 274.889 167.734 270.734 173.027Z" fill="#606C5D"/>
<ellipse cx="239.059" cy="117.152" rx="3.92713" ry="4.69018" transform="rotate(15 239.059 117.152)" fill="#F7E6C4"/>
<ellipse cx="247.759" cy="84.6842" rx="3.92713" ry="7.03528" transform="rotate(15 247.759 84.6842)" fill="#F7E6C4"/>
<ellipse cx="4.71011" cy="6.84341" rx="4.71011" ry="6.84341" transform="matrix(0.826364 0.563136 -0.565594 0.824684 277.606 72.8317)" fill="#F7E6C4"/>
<ellipse cx="4.7101" cy="6.84341" rx="4.7101" ry="6.84341" transform="matrix(0.826364 0.563136 -0.565593 0.824684 278.308 106.627)" fill="#F7E6C4"/>
<ellipse cx="4.71011" cy="6.8434" rx="4.71011" ry="6.8434" transform="matrix(0.826364 0.563136 -0.565594 0.824684 260.707 135.901)" fill="#F7E6C4"/>
<ellipse cx="4.7101" cy="6.84341" rx="4.7101" ry="6.84341" transform="matrix(0.826364 0.563137 -0.565593 0.824685 249.984 163.78)" fill="#F7E6C4"/>
<ellipse cx="4.71253" cy="6.83984" rx="4.71253" ry="6.83984" transform="matrix(0.973681 0.227913 -0.227617 0.973751 200.189 113.521)" fill="#F7E6C4"/>
<ellipse cx="4.71253" cy="6.83985" rx="4.71253" ry="6.83985" transform="matrix(0.973681 0.227913 -0.227617 0.973751 203.325 83.6094)" fill="#F7E6C4"/>
<ellipse cx="4.71161" cy="6.84121" rx="4.71161" ry="6.84121" transform="matrix(0.892184 0.451671 -0.453384 0.891315 232.061 49.8371)" fill="#F7E6C4"/>
<ellipse cx="4.70827" cy="6.84609" rx="4.70827" ry="6.84609" transform="matrix(0.756147 0.654402 -0.65723 0.75369 263.212 48.6082)" fill="#F7E6C4"/>
<ellipse cx="4.70827" cy="6.84609" rx="4.70827" ry="6.84609" transform="matrix(0.756147 0.654401 -0.65723 0.75369 228.943 138.719)" fill="#F7E6C4"/>
<ellipse cx="224.037" cy="188.389" rx="4.71256" ry="7.03528" transform="rotate(15 224.037 188.389)" fill="#F7E6C4"/>
<ellipse cx="4.70827" cy="7.04173" rx="4.70827" ry="7.04173" transform="matrix(0.982008 -0.188839 0.19252 0.981293 191.312 158.789)" fill="#F7E6C4"/>
<ellipse cx="4.70371" cy="6.26542" rx="4.70371" ry="6.26542" transform="matrix(0.914437 -0.404729 0.40898 0.912543 109.519 148.44)" fill="#F7E6C4"/>
<ellipse cx="4.88725" cy="6.26541" rx="4.88725" ry="6.26541" transform="matrix(0.914437 -0.404728 0.408981 0.912543 87.3337 157.301)" fill="#F7E6C4"/>
<ellipse cx="4.89377" cy="7.0723" rx="4.89377" ry="7.0723" transform="matrix(0.996549 -0.0830018 0.0860297 0.996293 102.578 178.287)" fill="#F7E6C4"/>
<ellipse cx="4.8851" cy="7.0849" rx="4.8851" ry="7.0849" transform="matrix(0.872678 -0.488296 0.492442 0.870345 132.852 176.676)" fill="#F7E6C4"/>
<ellipse cx="4.89242" cy="7.07426" rx="4.89242" ry="7.07426" transform="matrix(0.986246 -0.165282 0.168835 0.985644 118.594 205.611)" fill="#F7E6C4"/>
<ellipse cx="4.89239" cy="7.0743" rx="4.89239" ry="7.0743" transform="matrix(0.98598 -0.166864 0.170426 0.98537 157.94 198.365)" fill="#F7E6C4"/>
<ellipse cx="4.89474" cy="7.07088" rx="4.89474" ry="7.07088" transform="matrix(0.999939 -0.0110146 0.0134933 0.999909 151.736 227.586)" fill="#F7E6C4"/>
<ellipse cx="5.61311" cy="8.67585" rx="5.61311" ry="8.67585" transform="matrix(0.99673 0.0808007 -0.0791144 0.996866 195.595 209.565)" fill="#F7E6C4"/>
<ellipse cx="4.44269" cy="6.74885" rx="4.44269" ry="6.74885" transform="matrix(0.858612 0.512626 -0.514778 0.857323 223.293 217.664)" fill="#F7E6C4"/>
<ellipse cx="4.43398" cy="6.76217" rx="4.43398" ry="6.76217" transform="matrix(0.512033 0.858966 -0.861392 0.507941 279.821 217.094)" fill="#F7E6C4"/>
<ellipse cx="4.43398" cy="6.76217" rx="4.43398" ry="6.76217" transform="matrix(0.512033 0.858966 -0.861392 0.507941 325.341 229.291)" fill="#F7E6C4"/>
<ellipse cx="4.43398" cy="6.76217" rx="4.43398" ry="6.76217" transform="matrix(0.512033 0.858966 -0.861392 0.507941 355.89 224.528)" fill="#F7E6C4"/>
<ellipse cx="4.43399" cy="6.76218" rx="4.43399" ry="6.76218" transform="matrix(0.512033 0.858966 -0.861392 0.507941 355.081 251.827)" fill="#F7E6C4"/>
<ellipse cx="4.43398" cy="6.76218" rx="4.43398" ry="6.76218" transform="matrix(0.512032 0.858966 -0.861392 0.507941 322.914 262.63)" fill="#F7E6C4"/>
<ellipse cx="4.43398" cy="6.76218" rx="4.43398" ry="6.76218" transform="matrix(0.512034 0.858966 -0.861392 0.50794 297.321 242.824)" fill="#F7E6C4"/>
<ellipse cx="4.44331" cy="6.74792" rx="4.44331" ry="6.74792" transform="matrix(0.888267 0.459327 -0.4611 0.887348 254.262 250.709)" fill="#F7E6C4"/>
<ellipse cx="4.4433" cy="6.74792" rx="4.4433" ry="6.74792" transform="matrix(0.888267 0.459327 -0.4611 0.887348 215.418 250.012)" fill="#F7E6C4"/>
<ellipse cx="4.44137" cy="6.75088" rx="4.44137" ry="6.75088" transform="matrix(0.993162 -0.116748 0.120005 0.992773 184.429 247.966)" fill="#F7E6C4"/>
<ellipse cx="4.4433" cy="6.74793" rx="4.4433" ry="6.74793" transform="matrix(0.888267 0.459328 -0.461099 0.887349 189.118 275.336)" fill="#F7E6C4"/>
<ellipse cx="4.78663" cy="6.33885" rx="4.78663" ry="6.33885" transform="matrix(0.91988 -0.392199 0.421506 0.906826 80.3826 260.407)" fill="#F7E6C4"/>
<ellipse cx="4.97341" cy="6.33885" rx="4.97341" ry="6.33885" transform="matrix(0.919881 -0.392199 0.421506 0.906826 58.0698 267.619)" fill="#F7E6C4"/>
<ellipse cx="4.95065" cy="7.19786" rx="4.95065" ry="7.19786" transform="matrix(0.855865 -0.517199 0.544915 0.838491 58.8066 296.297)" fill="#F7E6C4"/>
<ellipse cx="4.92917" cy="7.22882" rx="4.92917" ry="7.22882" transform="matrix(0.777912 -0.628373 0.652102 0.758132 85.5182 296.299)" fill="#F7E6C4"/>
<ellipse cx="4.95011" cy="7.19865" rx="4.95011" ry="7.19865" transform="matrix(0.854133 -0.520055 0.547697 0.836676 94.0509 326.892)" fill="#F7E6C4"/>
<ellipse cx="4.92844" cy="7.22986" rx="4.92844" ry="7.22986" transform="matrix(0.774895 -0.63209 0.655643 0.755071 106.229 282.879)" fill="#F7E6C4"/>
<ellipse cx="4.93096" cy="7.22625" rx="4.93096" ry="7.22625" transform="matrix(0.785217 -0.619221 0.643366 0.765558 127.911 325.399)" fill="#F7E6C4"/>
<ellipse cx="5.76934" cy="8.68661" rx="5.76934" ry="8.68661" transform="matrix(0.996322 0.0856831 -0.0740548 0.997254 169.208 333.613)" fill="#F7E6C4"/>
<ellipse cx="5.5534" cy="6.60096" rx="5.5534" ry="6.60096" transform="matrix(0.988261 0.152777 -0.14557 0.989348 195.873 343.833)" fill="#F7E6C4"/>
<ellipse cx="5.36004" cy="5.0352" rx="5.36004" ry="5.0352" transform="matrix(0.86232 0.506364 -0.521204 0.853432 224.935 346.453)" fill="#F7E6C4"/>
<ellipse cx="4.50054" cy="6.85923" rx="4.50054" ry="6.85923" transform="matrix(0.524018 0.851707 -0.86843 0.495812 255.743 330.423)" fill="#F7E6C4"/>
<ellipse cx="4.43744" cy="6.95423" rx="4.43744" ry="6.95423" transform="matrix(0.0463026 0.998927 -0.999612 0.0278589 300.406 339.298)" fill="#F7E6C4"/>
<ellipse cx="4.50054" cy="6.85923" rx="4.50054" ry="6.85923" transform="matrix(0.524018 0.851707 -0.86843 0.495812 331.074 348.986)" fill="#F7E6C4"/>
<ellipse cx="4.50054" cy="6.85922" rx="4.50054" ry="6.85922" transform="matrix(0.524018 0.851707 -0.86843 0.495812 333.737 369.13)" fill="#F7E6C4"/>
<ellipse cx="4.42929" cy="6.96629" rx="4.42929" ry="6.96629" transform="matrix(-0.0752864 0.997162 -0.996222 -0.0868402 302.192 389.82)" fill="#F7E6C4"/>
<ellipse cx="4.45689" cy="6.92521" rx="4.45689" ry="6.92521" transform="matrix(0.234262 0.972173 -0.978152 0.207889 343.199 397.642)" fill="#F7E6C4"/>
<ellipse cx="4.45689" cy="6.92521" rx="4.45689" ry="6.92521" transform="matrix(0.234263 0.972173 -0.978152 0.207889 358.096 375.657)" fill="#F7E6C4"/>
<ellipse cx="4.42928" cy="6.96629" rx="4.42928" ry="6.96629" transform="matrix(-0.0752858 0.997162 -0.996222 -0.0868408 269.817 379.527)" fill="#F7E6C4"/>
<ellipse cx="4.44638" cy="6.94091" rx="4.44638" ry="6.94091" transform="matrix(0.142284 0.989826 -0.992861 0.119281 303.213 363.863)" fill="#F7E6C4"/>
<ellipse cx="4.50054" cy="6.85923" rx="4.50054" ry="6.85923" transform="matrix(0.524017 0.851708 -0.86843 0.495813 259.563 352.494)" fill="#F7E6C4"/>
<ellipse cx="4.49182" cy="6.87252" rx="4.49182" ry="6.87252" transform="matrix(0.472717 0.881214 -0.896176 0.443699 232.38 372.451)" fill="#F7E6C4"/>
<ellipse cx="4.52519" cy="6.8214" rx="4.52519" ry="6.8214" transform="matrix(0.947608 -0.319435 0.348298 0.937384 193.467 379.903)" fill="#F7E6C4"/>
<ellipse cx="4.49698" cy="6.86466" rx="4.49698" ry="6.86466" transform="matrix(0.867929 -0.496689 0.524875 0.851179 138.104 350.824)" fill="#F7E6C4"/>
<ellipse cx="6.02958" cy="6.86466" rx="6.02958" ry="6.86466" transform="matrix(0.867929 -0.496689 0.524875 0.851179 134.581 306.752)" fill="#F7E6C4"/>
<ellipse cx="4.7992" cy="6.86467" rx="4.7992" ry="6.86467" transform="matrix(0.867928 -0.496689 0.524874 0.85118 190.023 318.369)" fill="#F7E6C4"/>
<ellipse cx="4.52675" cy="6.81897" rx="4.52675" ry="6.81897" transform="matrix(0.951167 -0.308677 0.337396 0.941363 168.165 368.724)" fill="#F7E6C4"/>
<ellipse cx="5.4934" cy="7.0412" rx="5.4934" ry="7.0412" transform="matrix(0.985711 -0.168443 0.172014 0.985095 193.714 410.804)" fill="#F7E6C4"/>
<ellipse cx="5.49712" cy="7.03638" rx="5.49712" ry="7.03638" transform="matrix(0.996803 0.0799016 -0.0782068 0.996937 202.188 438.692)" fill="#F7E6C4"/>
<ellipse cx="5.48659" cy="7.04998" rx="5.48659" ry="7.04998" transform="matrix(0.896741 -0.442556 0.446784 0.894642 163.188 421.55)" fill="#F7E6C4"/>
<ellipse cx="5.47639" cy="7.06308" rx="5.47639" ry="7.06308" transform="matrix(0.637489 -0.77046 0.772743 0.634719 173.408 456.239)" fill="#F7E6C4"/>
<ellipse cx="5.78214" cy="5.45696" rx="5.78214" ry="5.45696" transform="matrix(0.936676 0.350198 -0.351053 0.936356 133.796 426.075)" fill="#F7E6C4"/>
<ellipse cx="7.58736" cy="5.82384" rx="7.58736" ry="5.82384" transform="matrix(0.597518 0.801855 -0.804617 0.593795 131.279 398.558)" fill="#F7E6C4"/>
<ellipse cx="7.6466" cy="5.86931" rx="7.6466" ry="5.86931" transform="matrix(0.597517 0.801856 -0.804616 0.593795 109.415 407.741)" fill="#F7E6C4"/>
</svg>
