<svg width="296" height="284" viewBox="0 0 296 284" fill="none" xmlns="http://www.w3.org/2000/svg">
<path d="M59.6482 276.874C63.0689 273.204 66.2899 269.353 69.2972 265.337L69.2973 283.32L73.5626 279.055L73.5626 259.363C76.4145 255.131 79.0298 250.745 81.3966 246.224C81.5354 246.183 81.6644 246.113 81.7755 246.02C81.8866 245.927 81.9776 245.813 82.0428 245.683C82.1081 245.554 82.1462 245.412 82.1549 245.268C82.1636 245.123 82.1426 244.978 82.0934 244.842C84.6262 239.877 86.8593 234.765 88.7808 229.534C91.1713 228.944 93.5051 228.145 95.755 227.145C106.64 231.624 116.424 223.605 119.038 213.045C119.075 212.901 119.071 212.749 119.026 212.607C120.173 212.371 119.706 210.623 118.549 210.837C113.013 211.978 108.208 210.421 103.128 213.692C98.8064 216.462 96.2775 220.857 94.6872 225.605C92.9834 226.353 91.2295 226.98 89.4384 227.482C91.6049 221.275 93.327 214.922 94.5917 208.471C94.8317 208.44 95.059 208.345 95.2491 208.195L105.842 199.479C106.782 200.398 108.025 200.941 109.338 201.005C110.651 201.069 111.941 200.65 112.966 199.827C113.99 199.003 114.677 197.833 114.897 196.537C115.116 195.241 114.853 193.91 114.158 192.795C113.462 191.68 112.382 190.859 111.121 190.487C109.861 190.115 108.507 190.217 107.318 190.776C106.128 191.334 105.184 192.309 104.665 193.516C104.145 194.723 104.086 196.079 104.499 197.327L95.2435 204.93C96.0604 200.123 96.6232 195.276 96.9295 190.409C98.1259 190.275 99.2414 189.739 100.093 188.888C100.944 188.037 101.482 186.922 101.616 185.725C101.75 184.529 101.474 183.323 100.833 182.304C100.191 181.285 99.2222 180.515 98.0853 180.119C96.9483 179.723 95.7105 179.726 94.5751 180.126C93.4397 180.526 92.474 181.301 91.8365 182.322C91.199 183.343 90.9277 184.551 91.0668 185.746C91.2059 186.942 91.7473 188.055 92.6023 188.903C93.1209 189.417 93.7384 189.82 94.4174 190.089C94.2151 193.461 93.8948 196.827 93.4452 200.154C91.0662 197.909 88.6141 195.746 86.089 193.663C86.6947 192.515 86.8589 191.185 86.5506 189.924C86.2422 188.663 85.4826 187.559 84.4155 186.82C83.3483 186.081 82.0475 185.759 80.7588 185.914C79.4702 186.07 78.2831 186.692 77.4218 187.663C76.5606 188.634 76.0849 189.887 76.0847 191.185C76.0845 192.482 76.5599 193.736 77.4208 194.707C78.2818 195.678 79.4688 196.3 80.7574 196.456C82.046 196.612 83.3469 196.29 84.4143 195.551C87.3646 197.984 90.2308 200.513 92.9788 203.171C90.8733 216.49 86.8014 229.421 80.8964 241.543C78.762 235.453 76.3026 229.482 73.5289 223.655L73.5233 182.918C79.5496 172.278 84.6234 161.126 88.6853 149.593C88.8028 149.552 88.9115 149.489 89.0056 149.407L95.0918 144.018C95.1412 144.05 95.1939 144.076 95.2492 144.097C105.376 146.48 112.569 137.814 112.592 128.283C112.592 128.283 112.592 128.283 112.552 128.244C112.642 128.095 112.684 127.923 112.674 127.75C112.664 127.577 112.601 127.411 112.495 127.274C112.388 127.137 112.243 127.036 112.077 126.983C111.912 126.93 111.735 126.929 111.569 126.979C106.916 128.665 101.116 129.935 97.2666 133.211C94.2264 135.791 93.6981 139.253 93.4452 143.001L93.4846 143.04L89.8486 146.26C91.3285 141.746 92.6172 137.194 93.715 132.604C93.7717 132.469 93.8022 132.324 93.8049 132.177C94.2995 130.109 94.7453 128.034 95.1424 125.951C95.2339 125.882 95.3152 125.801 95.384 125.709C98.0229 122.255 100.991 119.064 104.246 116.184C104.359 116.296 104.465 116.403 104.584 116.521C105.526 117.354 106.737 117.821 107.995 117.836C109.253 117.851 110.474 117.413 111.437 116.603C112.399 115.792 113.038 114.663 113.237 113.42C113.436 112.178 113.182 110.906 112.521 109.835C111.86 108.765 110.836 107.967 109.636 107.589C108.437 107.21 107.141 107.275 105.985 107.772C104.829 108.269 103.891 109.165 103.34 110.297C102.79 111.428 102.665 112.72 102.988 113.936C100.514 116.107 98.1933 118.447 96.0416 120.938C96.701 116.757 97.1767 112.568 97.4689 108.372C97.4664 108.292 97.4551 108.213 97.4353 108.136C98.6865 107.956 99.828 107.322 100.643 106.356C101.458 105.389 101.889 104.157 101.856 102.893C101.822 101.63 101.325 100.422 100.46 99.5007C99.5949 98.579 98.4213 98.0071 97.1622 97.8938C95.9031 97.7804 94.6462 98.1334 93.6302 98.8857C92.6142 99.6379 91.9099 100.737 91.651 101.975C91.3921 103.212 91.5966 104.501 92.2257 105.598C92.8548 106.694 93.8648 107.522 95.0637 107.923C94.9956 108.064 94.9537 108.216 94.9401 108.372C94.5028 114.649 93.6467 120.89 92.3775 127.052C91.3376 123.997 90.0228 121.042 88.4493 118.224L88.5336 118.139C89.3994 117.183 89.887 115.945 89.9052 114.655C89.9233 113.365 89.4707 112.113 88.6321 111.134C87.7935 110.154 86.6264 109.513 85.3495 109.332C84.0726 109.151 82.7734 109.441 81.6953 110.149C80.6172 110.857 79.8342 111.934 79.4928 113.177C79.1514 114.421 79.2751 115.747 79.8408 116.906C80.4065 118.065 81.3754 118.978 82.5659 119.474C83.7564 119.97 85.0868 120.015 86.3081 119.6C88.4775 123.533 90.1338 127.728 91.2367 132.082C89.7099 138.459 87.8166 144.743 85.5663 150.902C82.9777 145.95 80.017 141.2 76.7096 136.696C76.6763 136.553 76.6149 136.418 76.529 136.3C76.4431 136.181 76.3345 136.081 76.2095 136.004C75.3216 134.779 74.4262 133.562 73.5233 132.352L73.5232 61.0147L126.804 61.0203C133.757 63.7391 140.907 65.9222 148.193 67.5505C144.169 69.6185 140.111 71.6303 136.02 73.586L123.663 70.467C123.864 69.228 123.611 67.9578 122.95 66.8904C122.289 65.8231 121.265 65.0305 120.066 64.6587C118.867 64.287 117.574 64.3611 116.425 64.8674C115.276 65.3737 114.349 66.278 113.815 67.4138C113.28 68.5497 113.174 69.8405 113.516 71.0484C113.858 72.2564 114.624 73.3001 115.675 73.9873C116.726 74.6745 117.989 74.9589 119.233 74.7881C120.477 74.6173 121.617 74.0027 122.443 73.0577C122.516 72.9847 122.555 72.8892 122.623 72.8105L132.373 75.2776C131.103 75.862 129.839 76.4633 128.54 77.0646C127.435 76.419 126.131 76.1982 124.875 76.4434C123.618 76.6887 122.493 77.3833 121.711 78.3974C120.929 79.4114 120.543 80.6755 120.625 81.9534C120.708 83.2313 121.252 84.4355 122.158 85.341C123.063 86.2465 124.268 86.7912 125.546 86.8734C126.823 86.9556 128.088 86.5697 129.102 85.7877C130.116 85.0057 130.81 83.8811 131.055 82.6243C131.301 81.3675 131.08 80.0644 130.434 78.9585C132.405 78.0518 134.372 77.1377 136.335 76.2161C136.536 76.2359 136.74 76.2015 136.923 76.1166C137.107 76.0316 137.265 75.8991 137.38 75.7327C138.296 75.3 139.195 74.8505 140.106 74.4009C139.475 76.8939 138.59 79.3155 137.465 81.6278C136.223 81.8736 135.112 82.5622 134.34 83.5655C133.568 84.5687 133.187 85.8183 133.267 87.0818C133.348 88.3452 133.884 89.5364 134.777 90.4336C135.67 91.3309 136.859 91.8732 138.122 91.9594C139.385 92.0457 140.637 91.6702 141.643 90.9028C142.65 90.1353 143.344 89.0281 143.596 87.7874C143.847 86.5466 143.639 85.2568 143.011 84.1578C142.382 83.0588 141.376 82.2257 140.179 81.8133C141.425 79.0758 142.365 76.2093 142.983 73.2657C142.994 73.1799 142.994 73.093 142.983 73.0072C150.045 69.5267 157.01 65.8626 163.877 62.015C163.738 63.5346 163.492 65.0427 163.141 66.5277C159.522 66.9436 155.667 68.045 153.953 71.6023C153.274 73.3021 152.981 75.1311 153.093 76.9579C153.031 81.3919 152.981 84.848 151.042 88.8998C150.983 89.016 150.951 89.1437 150.947 89.2738C150.943 89.4039 150.968 89.5333 151.019 89.6528C151.035 89.7736 151.078 89.8894 151.143 89.9921C151.209 90.0948 151.296 90.1818 151.399 90.2472C151.502 90.3125 151.618 90.3546 151.739 90.3703C151.859 90.3861 151.982 90.3752 152.098 90.3384C159.668 88.1523 176.971 74.0637 164.945 66.803C165.4 64.9152 165.691 62.9919 165.816 61.0541H205.727C209.857 64.5516 214.353 67.5926 219.136 70.1243C212.62 73.8802 205.872 77.2195 198.933 80.1218C193.839 78.5694 188.653 77.3363 183.406 76.4297C183.605 75.1885 183.349 73.9172 182.685 72.8498C182.021 71.7825 180.994 70.9909 179.792 70.621C178.591 70.2511 177.296 70.3277 176.147 70.8367C174.998 71.3458 174.071 72.2529 173.537 73.3911C173.004 74.5293 172.9 75.822 173.244 77.0311C173.588 78.2401 174.357 79.2841 175.41 79.9707C176.463 80.6574 177.729 80.9405 178.974 80.7679C180.219 80.5953 181.36 79.9787 182.186 79.0316C182.243 78.9593 182.295 78.8842 182.344 78.8067C186.658 79.5349 190.931 80.4879 195.145 81.6616C191.779 82.9823 188.379 84.2129 184.918 85.3369C184.918 85.3369 184.878 85.3762 184.861 85.3931C184.565 84.6454 184.097 83.9775 183.496 83.443C182.612 82.6546 181.489 82.1872 180.307 82.1165C179.125 82.0457 177.954 82.3757 176.983 83.053C176.012 83.7303 175.297 84.7153 174.956 85.8489C174.614 86.9825 174.664 88.1983 175.099 89.2996C175.533 90.401 176.327 91.3236 177.351 91.9181C178.374 92.5127 179.569 92.7445 180.741 92.5761C181.913 92.4077 182.994 91.8488 183.809 90.9899C184.624 90.1311 185.125 89.0224 185.232 87.8432C185.348 87.8431 185.463 87.83 185.575 87.804C187.134 87.2945 188.679 86.7681 190.211 86.2248C189.13 88.6487 187.863 90.986 186.424 93.2158C185.433 93.0169 184.404 93.1792 183.523 93.6735C182.642 94.1677 181.967 94.9612 181.62 95.9102C181.273 96.8592 181.278 97.9009 181.633 98.8469C181.988 99.7928 182.67 100.58 183.555 101.067C184.441 101.553 185.471 101.707 186.46 101.499C187.449 101.291 188.331 100.736 188.946 99.9348C189.561 99.1332 189.868 98.1378 189.813 97.129C189.758 96.1202 189.343 95.1646 188.643 94.4352C190.526 91.5 192.128 88.3935 193.426 85.157C193.426 85.157 193.431 85.0953 193.443 85.0616C195.38 84.3385 197.305 83.5816 199.22 82.7911C199.366 82.7909 199.511 82.7597 199.645 82.6997C199.778 82.6396 199.898 82.5521 199.995 82.4427C204.663 80.4795 209.236 78.331 213.713 75.9969C212.706 77.6977 211.8 79.456 210.999 81.2627C210.847 81.2549 210.696 81.2798 210.555 81.3357C205.255 83.6904 200.259 87.3039 198.899 93.2832C197.27 100.465 203.665 105.433 204.278 112.216C204.362 113.256 205.874 113.351 206.053 112.475C215.483 104.742 224.312 90.5407 213.415 80.3859C214.444 78.2809 215.614 76.2476 216.916 74.2997C218.636 73.3556 220.333 72.389 222.019 71.3887C222.287 71.3999 222.552 71.3331 222.783 71.1964C223.013 71.0597 223.199 70.8591 223.317 70.6188C228.225 67.6665 232.991 64.4821 237.614 61.0653L240.463 61.0596C240.368 61.8857 240.311 62.7062 240.255 63.5155L240.244 63.5941L240.21 63.6278C236.125 66.4321 232.494 70.6357 233.258 75.9407C234.079 81.6841 239.811 84.9884 241.761 90.2317C241.821 90.3789 241.916 90.5094 242.037 90.6121C242.159 90.7148 242.303 90.7866 242.458 90.8214C242.613 90.8562 242.775 90.853 242.928 90.812C243.082 90.7709 243.223 90.6932 243.34 90.5857C243.514 90.6194 243.693 90.5994 243.855 90.5281C244.017 90.4567 244.153 90.3376 244.245 90.1867C247.218 85.5841 249.87 80.5376 249.168 74.8786C248.858 72.5525 248.065 70.3171 246.838 68.3164C245.612 66.3157 243.98 64.5942 242.048 63.2626C242.082 62.5208 242.155 61.7734 242.256 61.0428L262.043 61.0371C264.993 63.4762 268.114 65.6999 271.383 67.691C272.788 68.5339 274.03 66.3253 272.636 65.4824C270.381 64.1218 268.203 62.6378 266.111 61.0372L291.631 61.0427L295.885 56.7887L260.874 56.7999C256.822 53.2201 253.062 49.3369 249.353 45.3581C249.414 45.2433 249.448 45.1167 249.455 44.9871C249.511 43.807 249.64 42.6438 249.792 41.4805C259.992 38.7999 264.15 23.9975 258.289 15.7646C258.215 15.6458 258.115 15.5458 257.997 15.4724C257.941 15.3074 257.84 15.1616 257.705 15.0522C257.569 14.9428 257.405 14.8744 257.232 14.855C257.059 14.8355 256.885 14.8657 256.728 14.9422C256.572 15.0188 256.441 15.1384 256.35 15.287C253.568 20.2155 247.229 22.4521 245.33 27.7571C243.852 31.8988 245.571 36.1586 247.696 39.699C247.747 39.7917 247.816 39.8733 247.899 39.9389C247.982 40.0045 248.077 40.0528 248.179 40.0811C247.994 41.2444 247.847 42.4246 247.757 43.6159C245.6 41.2781 243.447 38.9347 241.267 36.6194C237.13 32.2188 232.683 28.1208 227.959 24.3571C227.926 24.179 227.851 24.0114 227.74 23.8682C224.113 18.743 220.326 13.7415 216.377 8.86353C216.476 8.77555 216.57 8.68174 216.658 8.58255C217.382 7.77286 217.796 6.73224 217.824 5.64618C217.853 4.56011 217.495 3.49928 216.815 2.65244C216.134 1.8056 215.175 1.2278 214.108 1.02218C213.041 0.816568 211.936 0.99636 210.99 1.52959C210.043 2.06282 209.316 2.9149 208.939 3.93382C208.562 4.95274 208.559 6.07242 208.931 7.09334C209.303 8.11426 210.025 8.97013 210.968 9.50841C211.912 10.0467 213.016 10.2324 214.084 10.0325C216.632 13.187 219.114 16.3846 221.53 19.6253C216.205 16.0037 210.549 12.8952 204.637 10.3415C204.914 9.10816 204.731 7.81614 204.123 6.70793C203.515 5.59971 202.524 4.7516 201.334 4.32269C200.145 3.89378 198.841 3.91354 197.665 4.3784C196.49 4.84325 195.524 5.72113 194.95 6.84731C194.376 7.97349 194.232 9.27063 194.547 10.495C194.861 11.7194 195.612 12.7869 196.657 13.4973C197.703 14.2076 198.972 14.512 200.226 14.3531C201.48 14.1942 202.633 13.5831 203.468 12.6344L203.508 12.595C208.576 14.7861 213.448 17.403 218.074 20.4177C215.15 21.1413 212.16 21.5669 209.15 21.6878C208.385 20.647 207.268 19.9205 206.007 19.6443C204.745 19.3681 203.426 19.5612 202.297 20.1873C201.168 20.8134 200.305 21.8297 199.871 23.0459C199.437 24.2621 199.461 25.5947 199.939 26.7944C200.417 27.9941 201.315 28.9787 202.466 29.5636C203.617 30.1485 204.942 30.2937 206.193 29.9722C207.444 29.6506 208.534 28.8842 209.261 27.8165C209.987 26.7488 210.299 25.4531 210.139 24.1718C213.714 23.9729 217.255 23.3658 220.693 22.3622C220.738 22.3412 220.781 22.3167 220.822 22.2891C227.301 26.8747 233.331 32.0623 238.833 37.7827C237.473 37.8951 236.108 37.9907 234.742 38.0525C234.686 37.9744 234.618 37.906 234.54 37.8502C234.525 37.7097 234.472 37.5759 234.388 37.4624C231.848 34.0456 227.335 30.2185 222.75 30.6568C220.84 30.9547 219.049 31.7735 217.574 33.0229C214.483 35.282 211.982 37.1982 208.105 37.9288C207.009 38.1367 207.413 39.7439 208.436 39.6765C212.511 43.6946 217.58 47.044 223.52 46.8923C225.817 46.8788 228.062 46.2095 229.991 44.963C231.921 43.7166 233.454 41.9448 234.411 39.8564C236.434 39.7664 238.457 39.6428 240.48 39.463C241.104 40.0868 241.699 40.75 242.295 41.4018C244.509 43.8071 246.701 46.2123 248.926 48.5614C245.717 51.4218 242.435 54.1531 239.058 56.7662L204.435 56.7605C197.129 50.5788 190.155 43.7622 182.271 38.4627C182.301 38.3193 182.295 38.1706 182.254 38.03C181.186 34.5922 179.811 31.2575 178.146 28.0662C178.222 28.0127 178.289 27.9461 178.343 27.8694C181.119 23.3062 181.816 19.4399 178.511 14.9104C174.442 9.33562 167.603 5.33997 161.433 2.60879C161.253 2.52778 161.053 2.5049 160.859 2.54336C160.666 2.58181 160.49 2.67967 160.355 2.82327C160.22 2.96687 160.133 3.14907 160.107 3.34436C160.08 3.53966 160.116 3.73834 160.208 3.91259C160.837 9.95942 159.674 15.9782 162.984 21.4462C164.442 23.8323 166.426 25.8544 168.784 27.3589C171.141 28.8634 173.811 29.8106 176.589 30.1286C176.775 30.1485 176.963 30.1133 177.129 30.0275C178.235 32.2842 179.194 34.6101 180 36.9904C171.911 31.972 163.33 27.7935 154.391 24.5201C154.355 24.3518 154.285 24.1928 154.183 24.0537C150.376 18.844 145.99 14.0818 141.112 9.85827C141.027 9.79335 140.934 9.73873 140.836 9.69537C141.517 8.60053 141.772 7.29347 141.552 6.02306C141.331 4.75264 140.652 3.60753 139.642 2.80591C138.632 2.00429 137.363 1.60203 136.075 1.67578C134.788 1.74952 133.573 2.29422 132.661 3.20594C131.749 4.11767 131.205 5.33282 131.131 6.62008C131.057 7.90733 131.459 9.17672 132.261 10.1866C133.063 11.1965 134.208 11.8762 135.478 12.0965C136.749 12.3168 138.056 12.0623 139.15 11.3813C139.2 11.4674 139.26 11.5467 139.33 11.6172C143.312 15.0771 146.955 18.9083 150.21 23.059C145.801 21.5791 141.325 20.311 136.785 19.2544C136.95 18.0115 136.664 16.7505 135.978 15.7011C135.291 14.6517 134.251 13.8839 133.046 13.5375C131.84 13.1911 130.551 13.2893 129.412 13.8141C128.273 14.3389 127.361 15.2553 126.842 16.3965C126.322 17.5377 126.23 18.8277 126.582 20.0312C126.934 21.2346 127.706 22.2717 128.759 22.9532C129.811 23.6347 131.074 23.9152 132.316 23.7438C133.558 23.5724 134.697 22.9605 135.526 22.0194C135.629 21.8956 135.723 21.764 135.807 21.626C138.735 22.3059 141.64 23.0646 144.506 23.9188C139.835 25.7639 135.024 27.2334 130.12 28.3135C129.784 27.2068 129.09 26.2429 128.147 25.5731C127.204 24.9033 126.066 24.5656 124.91 24.6128C123.754 24.66 122.647 25.0895 121.762 25.8339C120.877 26.5783 120.264 27.5956 120.02 28.726C119.775 29.8564 119.913 31.036 120.411 32.0797C120.909 33.1234 121.74 33.972 122.773 34.4926C123.806 35.0131 124.982 35.1761 126.117 34.9559C127.253 34.7356 128.283 34.1447 129.046 33.2757C129.64 32.5961 130.045 31.7724 130.221 30.8873C136.38 29.5565 142.397 27.6351 148.187 25.1496C148.212 25.1294 148.234 25.1068 148.254 25.0821C155.726 27.5145 162.98 30.5693 169.941 34.2142C167.977 35.8379 165.866 37.2752 163.636 38.5076C163.573 38.3132 163.439 38.1501 163.259 38.0524C159.353 35.7652 154.998 33.3431 150.294 34.2479C144.551 35.3606 141.381 41.0703 136.914 44.2567C136.736 44.2997 136.575 44.3931 136.45 44.5256C136.325 44.658 136.24 44.8239 136.207 45.0033C136.174 45.1827 136.193 45.3678 136.263 45.5365C136.332 45.7051 136.449 45.85 136.599 45.9537C141.96 49.5841 147.041 52.3715 153.621 50.871C159.314 49.5953 164.254 46.6338 163.855 40.4465C166.634 38.9672 169.245 37.1923 171.644 35.1527C174.948 36.9398 178.202 38.8449 181.366 40.9073C183.361 42.2167 185.283 43.6328 187.177 45.1108C180.875 49.1645 174.5 53.0628 168.053 56.8055L123.095 56.8055C117.936 54.6064 112.897 52.1524 107.978 49.4436C107.472 48.0837 106.961 46.7293 106.421 45.3806C106.603 45.4229 106.792 45.4102 106.967 45.3441C107.141 45.2781 107.291 45.1616 107.399 45.0097C115.542 33.8883 102.56 26.2454 93.7094 22.4858C92.7596 22.0868 91.9448 23.2838 92.5461 23.8738C92.1302 28.0999 91.7874 32.6351 93.8554 36.5127C95.9235 40.3903 100.194 43.099 104.089 45.0603C104.183 45.0988 104.281 45.1252 104.381 45.1389C104.769 46.0999 105.174 47.0553 105.516 48.05C98.0495 43.7714 90.8658 39.0166 84.0097 33.8152C84.0796 33.598 84.0815 33.3647 84.0153 33.1464C83.0524 29.8765 81.8329 26.6877 80.3681 23.6098C81.4652 23.256 82.4146 22.5491 83.0679 21.5994C83.7213 20.6496 84.0419 19.5104 83.9799 18.3592C83.9179 17.2081 83.4767 16.1099 82.7251 15.2358C81.9735 14.3617 80.9538 13.7609 79.825 13.5271C78.6962 13.2933 77.5217 13.4397 76.4847 13.9433C75.4478 14.4469 74.6067 15.2795 74.0925 16.3113C73.5784 17.343 73.4202 18.516 73.6425 19.6471C73.8648 20.7782 74.4552 21.804 75.3216 22.5645C76.0057 23.1688 76.8408 23.5767 77.7381 23.7446C77.7502 23.89 77.7863 24.0324 77.8448 24.1661C78.9791 26.4896 79.9645 28.8828 80.7952 31.3313C77.9329 29.0909 75.1343 26.783 72.3993 24.4077C72.9124 23.2549 72.9865 21.9544 72.6077 20.7508C72.229 19.5471 71.4234 18.5234 70.3426 17.8722C69.2618 17.221 67.9802 16.9873 66.7391 17.215C65.498 17.4426 64.3828 18.116 63.6035 19.1084C62.8241 20.1008 62.4344 21.3438 62.5074 22.6035C62.5805 23.8632 63.1114 25.0528 64.0003 25.9484C64.8891 26.844 66.0746 27.384 67.3338 27.4666C68.5929 27.5492 69.8387 27.1689 70.837 26.3971C75.7936 30.6681 80.9413 34.7593 86.2688 38.6144C80.1152 42.8236 72.832 42.1043 65.8579 40.8174C66.0388 39.5757 65.7665 38.3104 65.0908 37.2531C64.4152 36.1959 63.3814 35.4172 62.1786 35.0597C60.9759 34.7023 59.6846 34.7898 58.5412 35.3064C57.3977 35.823 56.4785 36.7342 55.9518 37.873C55.4251 39.0118 55.326 40.3023 55.6728 41.5082C56.0197 42.714 56.7891 43.7546 57.8404 44.4396C58.8917 45.1246 60.1544 45.4082 61.3976 45.2383C62.6408 45.0685 63.7813 44.4567 64.6104 43.5148C64.6935 43.4127 64.7704 43.3058 64.8408 43.1945C72.6241 44.65 80.8627 45.5042 87.7075 40.6937C87.9304 40.5299 88.0925 40.2966 88.1683 40.0306C97.2297 46.4734 106.841 52.1056 116.891 56.8617L69.3029 56.8617L69.3028 126.749C66.2288 122.629 63.2448 118.443 60.5417 114.076C56.6154 107.528 53.7887 100.38 52.1739 92.9179C52.8859 88.6742 54.207 84.5555 56.0964 80.6894C57.3398 80.8614 58.6035 80.5805 59.6569 79.8979C60.7102 79.2154 61.4829 78.1768 61.834 76.9717C62.185 75.7667 62.0908 74.4756 61.5688 73.3342C61.0467 72.1927 60.1316 71.2771 58.9904 70.7545C57.8492 70.232 56.558 70.1374 55.3528 70.4878C54.1476 70.8383 53.1087 71.6106 52.4257 72.6636C51.7427 73.7167 51.4613 74.9803 51.6327 76.2236C51.8042 77.467 52.4171 78.6073 53.3597 79.4362C53.4721 79.5485 53.6238 79.6216 53.753 79.7172C52.6391 82.0184 51.7163 84.4073 50.9938 86.8598C49.9676 80.2444 49.2904 73.5795 48.965 66.8929C50.0421 66.2337 50.8419 65.2043 51.2145 63.9977C51.5871 62.7912 51.5069 61.4901 50.9891 60.3384C50.4713 59.1866 49.5513 58.2632 48.4015 57.7411C47.2516 57.219 45.9509 57.1341 44.7429 57.5022C43.535 57.8703 42.5027 58.6662 41.8394 59.7408C41.1762 60.8155 40.9276 62.095 41.1401 63.3398C41.3525 64.5846 42.0116 65.7092 42.9938 66.5029C43.9759 67.2967 45.2138 67.7051 46.4755 67.6516C46.7509 72.1979 47.0712 76.7556 47.5826 81.2682C44.3536 77.8013 40.8361 74.6147 37.0681 71.7428C37.7333 70.637 37.9711 69.3261 37.7365 68.0572C37.5019 66.7883 36.8112 65.649 35.7945 64.8543C34.7779 64.0595 33.5056 63.6642 32.2176 63.7428C30.9295 63.8214 29.7148 64.3685 28.8023 65.281C27.8899 66.1934 27.3428 67.4081 27.2642 68.6962C27.1856 69.9842 27.5809 71.2565 28.3757 72.2731C29.1704 73.2898 30.3097 73.9805 31.5786 74.2151C32.8475 74.4497 34.1584 74.2119 35.2641 73.5467C39.9372 77.0634 44.2079 81.0853 47.9985 85.5392C48.0491 85.5897 48.0884 85.6291 48.139 85.6797C49.4146 94.4521 51.6175 103.028 55.8717 111.036C56.2201 111.688 56.591 112.34 56.9563 112.986C55.0531 112.132 53.2098 111.191 51.4265 110.165C51.3691 110.125 51.3068 110.093 51.241 110.069C51.1567 109.985 51.0331 109.94 50.9319 109.884C50.9902 107.642 50.5229 105.418 49.5676 103.389C48.6122 101.361 47.1953 99.5835 45.4302 98.2004C39.906 93.8002 33.3534 94.542 26.8682 93.3169C26.6756 93.2792 26.4759 93.3035 26.2979 93.3862C26.1198 93.4689 25.9726 93.6058 25.8771 93.7774C25.7817 93.9489 25.743 94.1463 25.7666 94.3412C25.7902 94.5361 25.8748 94.7185 26.0084 94.8624C26.0157 95.007 26.0623 95.1469 26.1433 95.267C30.5941 102.056 40.6141 121.258 51.0668 112.008C53.4677 113.343 55.9446 114.537 58.4849 115.582C61.7556 120.932 65.4983 125.967 69.2748 130.969L69.2748 134.667C67.9485 131.396 65.3915 129.266 61.7724 128.097C56.074 126.254 51.5108 129.075 45.8742 128.317C45.6858 128.289 45.4936 128.319 45.3229 128.404C45.1523 128.488 45.0113 128.622 44.9188 128.789C44.7749 128.839 44.6458 128.924 44.5433 129.037C44.4408 129.149 44.368 129.286 44.3317 129.434C44.2954 129.582 44.2967 129.737 44.3355 129.884C44.3742 130.031 44.4492 130.167 44.5536 130.278C47.9423 133.869 51.1904 137.735 54.8151 141.09C56.945 143.052 59.3559 144.507 62.3512 144.232C65.0151 143.851 67.4652 142.56 69.286 140.579L69.2803 185.34C66.3056 190.405 63.1736 195.294 59.8842 200.007C57.2429 196.13 54.4555 192.361 51.522 188.701C51.9266 186.048 52.4942 183.367 52.9157 180.709C57.1024 177.759 60.7103 172.971 60.2438 167.672C60.0472 165.362 58.8613 163.682 57.3384 162.013C54.3824 158.753 50.9657 155.82 47.7962 152.762C47.6537 152.629 47.4721 152.544 47.278 152.521C47.084 152.499 46.8878 152.538 46.7181 152.635C46.5484 152.732 46.4141 152.881 46.3351 153.059C46.256 153.238 46.2363 153.437 46.2788 153.628C46.8351 157.253 44.3737 159.59 43.2105 162.653C42.4265 164.665 42.1824 166.846 42.5024 168.981C43.1992 173.809 45.7265 178.183 49.5607 181.198C49.6778 181.295 49.8173 181.361 49.9665 181.391C50.1156 181.42 50.2697 181.412 50.4149 181.367C50.4785 181.457 50.5595 181.534 50.6531 181.593C50.7466 181.652 50.851 181.691 50.96 181.71C50.651 183.412 50.3082 185.115 50.0103 186.796C42.6132 177.814 34.3664 169.567 25.3846 162.17C25.5159 161.911 25.5421 161.611 25.4577 161.332C24.2826 157.684 23.405 153.945 22.8333 150.155C23.742 149.924 24.5725 149.455 25.2385 148.795C26.0853 147.959 26.6294 146.864 26.7851 145.684C26.9407 144.504 26.6988 143.306 26.0979 142.279C25.4969 141.252 24.5709 140.454 23.4661 140.011C22.3613 139.569 21.1405 139.507 19.9966 139.835C18.8526 140.163 17.8506 140.863 17.1487 141.824C16.4467 142.786 16.0848 143.953 16.1201 145.143C16.1554 146.332 16.5858 147.476 17.3435 148.394C18.1012 149.312 19.143 149.951 20.3044 150.211C20.7307 153.425 21.4167 156.599 22.3556 159.703C18.6522 156.786 14.8476 153.993 10.897 151.358C11.2495 150.119 11.1375 148.794 10.582 147.632C10.0266 146.47 9.0659 145.551 7.88051 145.047C6.69512 144.543 5.36664 144.49 4.14459 144.896C2.92254 145.303 1.89107 146.142 1.244 147.256C0.59693 148.369 0.378789 149.681 0.630561 150.944C0.882334 152.207 1.58669 153.335 2.61129 154.115C3.63589 154.896 4.91018 155.275 6.19479 155.182C7.47941 155.089 8.68593 154.531 9.58761 153.611L9.64379 153.555C15.7041 157.614 21.5107 162.039 27.0312 166.806C22.7602 166.334 18.4723 165.924 14.1789 165.632C13.915 165.019 13.5375 164.462 13.0662 163.991C12.205 163.112 11.0691 162.555 9.8474 162.411C8.62564 162.268 7.39156 162.547 6.35017 163.201C5.30879 163.856 4.52281 164.848 4.12284 166.011C3.72288 167.174 3.73297 168.439 4.1515 169.596C4.57004 170.753 5.37182 171.732 6.42356 172.37C7.4753 173.008 8.71368 173.267 9.93298 173.104C11.1523 172.941 12.2791 172.365 13.1261 171.473C13.9731 170.581 14.4894 169.426 14.5891 168.2C19.8192 168.559 25.0325 169.056 30.2289 169.689C38.7149 177.383 46.4384 185.878 53.2922 195.057C51.9997 194.978 50.7184 194.865 49.4315 194.759C49.405 194.655 49.3654 194.555 49.3135 194.461C46.8071 190.628 43.1261 187.374 38.4786 186.56C32.7465 185.548 27.2785 189.274 21.7936 190.319C20.7596 190.521 21.0181 192.084 22.024 192.101C29.5095 192.235 31.1955 199.788 37.6975 201.39C42.1933 202.514 46.1046 199.895 49.1954 196.95C49.2958 196.853 49.3727 196.734 49.4202 196.602C51.1062 196.744 52.7977 196.862 54.4948 196.956C54.5503 196.955 54.6053 196.946 54.6578 196.928C60.1562 204.492 65.0493 212.478 69.2916 220.812L69.2916 224.262C68.5723 223.858 67.8305 223.476 67.0437 223.138C67.1693 223.04 67.2623 222.905 67.3104 222.753C67.3585 222.6 67.3596 222.437 67.3134 222.284C63.728 206.998 49.0156 215.226 38.3437 214.242C38.1748 214.227 38.0055 214.267 37.8605 214.355C37.7144 214.321 37.5738 214.282 37.4221 214.254C36.2869 214.051 35.8149 215.793 36.9444 216.024C44.0365 217.328 46.1327 225.808 52.9157 228.084C55.255 228.865 57.7468 229.079 60.1849 228.706C62.6231 228.334 64.9375 227.387 66.9369 225.943C67.0449 225.871 67.1364 225.778 67.2053 225.668C67.2741 225.559 67.3187 225.436 67.336 225.308C67.9935 225.639 68.6285 226.004 69.2579 226.387L69.2579 261.229C65.7529 266.127 61.9309 270.79 57.8162 275.188C56.7428 276.273 58.5299 278.071 59.6482 276.874ZM108.27 213.349C111.22 212.545 114.21 213.028 117.211 212.826C114.935 221.565 107.141 228.831 97.986 226.038C101.324 224.274 104.405 222.06 107.141 219.457C107.284 219.284 107.358 219.062 107.348 218.837C107.337 218.612 107.243 218.398 107.083 218.239C106.924 218.079 106.711 217.985 106.485 217.974C106.26 217.964 106.039 218.038 105.865 218.182C103.244 220.675 100.29 222.793 97.0868 224.476C99.1605 219.367 102.723 214.872 108.27 213.349ZM102.268 132.335C105.005 131.093 107.944 130.143 110.782 129.16C110.389 136.78 104.926 143.771 96.8115 142.535L102.768 137.252C103.645 136.476 102.358 135.201 101.487 135.971L95.5302 141.253C95.744 139.297 96.4832 137.435 97.6695 135.865C98.8557 134.295 100.445 133.075 102.268 132.335ZM205.733 110.345C204.727 106.158 201.884 102.887 200.771 98.6388C198.877 91.541 204.278 86.4777 209.987 83.5779C208.575 87.2361 207.572 91.0395 206.997 94.9186C206.829 96.0538 208.594 96.5145 208.768 95.3962C209.44 90.8164 210.732 86.3491 212.606 82.1167C221.575 91.142 213.842 103.269 205.733 110.345ZM247.415 76.261C247.572 80.8467 245.386 84.9098 242.981 88.6863C241.722 85.9776 239.789 83.8533 237.923 81.4706C233.489 75.789 234.72 70.0625 240.092 65.9039C239.927 69.0094 239.925 72.1214 240.086 75.227C240.137 76.4016 241.958 76.3903 241.896 75.227C241.739 72.316 241.699 69.4106 241.834 66.4883L241.868 65.4881C243.502 66.7893 244.841 68.4222 245.797 70.2793C246.753 72.1364 247.305 74.1752 247.415 76.261ZM250.432 24.093C252.989 21.8282 255.316 20.1086 257.176 17.3493C261.475 24.4695 258.39 36.5464 250.14 39.4237C250.743 35.9411 251.766 32.5445 253.186 29.3082C253.647 28.2517 252.079 27.3468 251.607 28.4146C250.302 31.3769 249.304 34.4652 248.628 37.631C246.055 32.843 245.807 28.201 250.432 24.093ZM221.047 44.9254C216.905 44.3129 213.466 41.9975 210.471 39.2045C213.041 38.3505 215.434 37.0325 217.529 35.3156C220.063 33.3543 222.21 31.8595 225.56 32.9047C228.359 33.9218 230.798 35.7393 232.573 38.1312C228.352 38.2716 224.121 38.2548 219.895 38.0187C218.715 37.9625 218.731 39.7665 219.895 39.8283C224.048 40.0588 228.201 40.0756 232.365 39.9351C230.156 43.9195 225.604 45.6279 221.047 44.9254ZM163.49 18.4452C161.725 14.1293 162.366 9.45365 162.051 4.94663C170.48 8.88045 182.45 16.3547 177.129 26.3185C174.766 22.161 171.907 18.3056 168.615 14.8373C168.445 14.6674 168.214 14.572 167.974 14.572C167.734 14.572 167.503 14.6675 167.333 14.8374C167.163 15.0073 167.068 15.2376 167.068 15.4779C167.068 15.7182 167.164 15.9487 167.333 16.1186C170.801 19.7721 173.766 23.8713 176.151 28.3078C170.514 27.2907 165.732 23.902 163.49 18.4452ZM158.123 47.2238C155.625 48.6567 152.813 49.4538 149.935 49.5448C145.669 49.5841 142.084 47.4598 138.656 45.1782C141.455 42.9416 143.629 40.0362 146.569 37.985C151.857 34.2816 156.993 36.552 161.955 39.4012C158.981 40.87 155.841 41.9793 152.604 42.7056C151.469 42.9641 151.93 44.7174 153.082 44.4758C156.186 43.7669 159.203 42.721 162.079 41.3568C162.034 44.0655 160.831 45.7178 158.134 47.2127L158.123 47.2238ZM95.2042 35.0964C93.6757 31.837 93.9061 28.1785 94.2433 24.6718C102.066 28.1448 112.845 34.3491 105.837 44.0206C104.336 40.3397 102.735 36.7037 100.998 33.1239C100.487 32.073 98.9075 32.9666 99.4246 34.0232C100.801 36.8499 102.088 39.7103 103.313 42.6101C100.037 40.7949 96.817 38.5077 95.2154 35.0853L95.2042 35.0964ZM162.315 82.3023C159.766 84.7902 156.737 86.7329 153.413 88.0119C154.308 85.8471 154.839 83.5496 154.987 81.212C155.094 79.2394 154.7 77.2051 154.948 75.2382C155.521 70.7199 158.662 69.0059 162.669 68.4383C162.181 70.0594 161.567 71.6397 160.831 73.1646C160.32 74.2042 161.882 75.1033 162.399 74.0581C163.24 72.324 163.935 70.5233 164.479 68.6744C169.21 72.2823 165.906 78.8799 162.315 82.3023ZM257.086 56.8112L243.481 56.8055C243.484 56.7148 243.466 56.6246 243.43 56.5414C245.88 54.5707 248.286 52.5401 250.646 50.4495C252.714 52.5963 254.872 54.7544 257.092 56.8056L257.086 56.8112ZM233.253 61.0766C229.503 63.7328 225.653 66.2523 221.704 68.6351C217.437 66.5472 213.401 64.0176 209.661 61.0878L233.253 61.0766ZM189.059 46.9036C189.109 46.8595 189.156 46.8126 189.2 46.7631C193.122 49.9776 196.899 53.4393 200.732 56.8111L173.043 56.8054C178.457 53.6097 183.801 50.3035 189.076 46.8867L189.059 46.9036ZM160.511 61.0653C157.611 62.6613 154.691 64.2367 151.75 65.7915C145.812 64.5946 139.957 63.0158 134.222 61.0652L160.511 61.0653ZM28.4081 95.385C37.394 96.8292 48.6616 97.4193 49.1618 108.766C45.4478 106.431 41.9746 103.733 38.7933 100.712C38.6196 100.569 38.3983 100.495 38.173 100.505C37.9476 100.516 37.7343 100.61 37.5748 100.77C37.4152 100.929 37.321 101.142 37.3104 101.368C37.2998 101.593 37.3737 101.814 37.5176 101.988C41.1477 105.438 45.1513 108.473 49.454 111.036C40.9794 117.645 32.5386 102.022 28.3912 95.3569L28.4081 95.385ZM50.8702 179.889C46.099 175.961 42.6091 169.38 45.0425 163.238C46.144 160.428 47.7905 158.242 48.1052 155.454C51.1342 158.191 54.6185 160.99 56.8663 164.215C60.2775 169.099 57.3834 174.623 53.3035 178.141C53.725 174.179 53.5676 170.257 51.7187 166.441C51.2073 165.39 49.6338 166.278 50.1452 167.329C52.0615 171.279 51.9716 175.438 51.3534 179.608L50.8702 179.889ZM38.1246 199.378C34.8033 198.575 33.1399 195.877 30.7458 193.708C29.4079 192.452 27.8151 191.499 26.0759 190.915C29.3691 189.712 32.6397 188.217 35.9273 188.133C40.6029 188.009 44.5535 190.904 47.1836 194.545C44.2782 194.259 41.3784 193.91 38.4898 193.461C37.3547 193.281 36.8995 195.051 38.0122 195.231C41.0318 195.695 44.059 196.077 47.0937 196.377C44.5255 198.653 41.6875 200.232 38.1302 199.372L38.1246 199.378ZM47.3803 221.863C45.4583 219.682 43.8567 217.519 41.6931 215.996C50.9376 215.349 62.4805 210.37 65.5095 222.402C62.2066 221.085 58.7721 220.126 55.2648 219.542C54.124 219.345 53.6519 221.087 54.7871 221.312C58.5627 221.924 62.25 222.992 65.768 224.493C59.6481 228.556 52.2694 227.404 47.3859 221.857L47.3803 221.863ZM60.0471 142.242C57.861 141.517 56.074 139.764 54.5174 138.162C51.9548 135.521 49.4595 132.812 46.9475 130.132C49.2285 130.047 51.4962 129.744 53.7193 129.227C59.2379 128.283 65.5151 130.222 67.6675 135.51C64.3267 134.745 61.05 133.723 57.8667 132.453C56.7821 132.054 56.3269 133.801 57.389 134.223C60.9267 135.638 64.5902 136.716 68.3306 137.443C68.4456 137.581 68.6041 137.676 68.7802 137.713C68.6847 140.899 61.9241 142.86 60.0527 142.237L60.0471 142.242ZM73.557 137.859C73.8323 137.853 74.1021 137.82 74.3775 137.803C77.9777 142.64 81.1605 147.774 83.8917 153.15C83.954 153.287 84.044 153.41 84.1563 153.511C84.2685 153.611 84.4004 153.688 84.5436 153.735C81.3954 161.942 77.7258 169.941 73.557 177.68L73.557 137.859ZM61.4072 202.216C64.1308 198.331 66.7609 194.318 69.2972 190.179L69.3028 215.361C66.8564 210.861 64.2264 206.478 61.4128 202.21L61.4072 202.216ZM73.5682 229.742C75.715 234.608 77.65 239.578 79.3734 244.651C77.5789 248.101 75.6438 251.464 73.5682 254.738L73.5682 229.742Z" fill="#E8DAD6"/>
<path d="M50.6278 163.733C50.7977 163.563 50.8932 163.333 50.8932 163.092C50.8932 162.852 50.7978 162.622 50.6278 162.452C50.4579 162.282 50.2275 162.186 49.9872 162.186C49.7469 162.186 49.5164 162.282 49.3465 162.452C49.1766 162.622 49.0812 162.852 49.0812 163.092C49.0812 163.333 49.1767 163.563 49.3466 163.733C49.5165 163.903 49.7469 163.998 49.9872 163.998C50.2275 163.998 50.4579 163.903 50.6278 163.733Z" fill="#E8DAD6"/>
<path d="M34.3981 192.899C34.2542 193.073 34.1803 193.294 34.1909 193.519C34.2014 193.745 34.2957 193.958 34.4552 194.118C34.6147 194.277 34.8281 194.371 35.0535 194.382C35.2788 194.392 35.5 194.319 35.6738 194.175C35.8177 194.001 35.8916 193.78 35.881 193.554C35.8704 193.329 35.7762 193.116 35.6167 192.956C35.4571 192.797 35.2438 192.702 35.0184 192.692C34.793 192.681 34.5719 192.755 34.3981 192.899Z" fill="#E8DAD6"/>
<path d="M50.6844 218.581C49.5885 218.193 49.1389 219.947 50.2067 220.351L51.6679 220.868C52.7637 221.256 53.2189 219.508 52.1512 219.104L50.6844 218.581Z" fill="#E8DAD6"/>
<path d="M109.546 217.783L110.911 216.754C111.114 216.63 111.261 216.435 111.325 216.206C111.388 215.978 111.363 215.734 111.254 215.523C111.195 215.42 111.116 215.329 111.022 215.257C110.928 215.184 110.821 215.13 110.706 215.099C110.591 215.067 110.471 215.059 110.353 215.074C110.235 215.089 110.121 215.127 110.018 215.186L108.652 216.203C108.451 216.33 108.305 216.527 108.242 216.756C108.18 216.985 108.206 217.229 108.315 217.44C108.435 217.646 108.631 217.798 108.861 217.862C109.091 217.926 109.337 217.898 109.546 217.783Z" fill="#E8DAD6"/>
<path d="M35.1856 99.0266L34.854 98.695C34.6802 98.5511 34.459 98.4772 34.2336 98.4878C34.0083 98.4984 33.795 98.5926 33.6354 98.7522C33.4759 98.9117 33.3816 99.125 33.3711 99.3504C33.3605 99.5757 33.4344 99.797 33.5783 99.9707L33.9099 100.302C34.0836 100.446 34.3048 100.52 34.5302 100.51C34.7556 100.499 34.9689 100.405 35.1284 100.245C35.288 100.086 35.3822 99.8723 35.3928 99.6469C35.4034 99.4216 35.3295 99.2004 35.1856 99.0266Z" fill="#E8DAD6"/>
<path d="M55.0788 131.981C54.7087 131.977 54.3457 131.88 54.0222 131.7C53.9189 131.641 53.805 131.603 53.6869 131.588C53.5689 131.573 53.449 131.581 53.3342 131.613C53.2194 131.644 53.1119 131.698 53.0178 131.771C52.9237 131.843 52.8449 131.934 52.7858 132.037C52.7268 132.141 52.6887 132.255 52.6737 132.373C52.6587 132.491 52.6671 132.611 52.6984 132.725C52.7297 132.84 52.7833 132.948 52.8562 133.042C52.929 133.136 53.0198 133.215 53.1231 133.274C53.7232 133.607 54.3979 133.783 55.0844 133.785C56.2758 133.774 56.2477 131.992 55.0788 131.981Z" fill="#E8DAD6"/>
<path d="M104.623 135.96L105.578 135.319C106.545 134.678 105.634 133.127 104.685 133.751L103.724 134.386C102.763 135.032 103.651 136.606 104.623 135.96Z" fill="#E8DAD6"/>
<path d="M99.542 30.8712C99.3172 30.489 99.0867 30.1126 98.8619 29.7304C98.8029 29.6271 98.724 29.5365 98.6299 29.4636C98.5359 29.3907 98.4283 29.3371 98.3135 29.3058C98.1987 29.2745 98.079 29.2661 97.9609 29.2811C97.8429 29.2961 97.7289 29.3342 97.6255 29.3933C97.5222 29.4523 97.4317 29.531 97.3588 29.6251C97.2859 29.7192 97.2323 29.8267 97.201 29.9415C97.1697 30.0563 97.1612 30.1762 97.1762 30.2943C97.1912 30.4123 97.2294 30.5262 97.2884 30.6295C97.5188 31.0061 97.7437 31.3882 97.9741 31.7647C98.1033 31.9503 98.2973 32.0808 98.5179 32.1306C98.7384 32.1805 98.9696 32.1461 99.1661 32.0341C99.3626 31.9222 99.51 31.7408 99.5796 31.5256C99.6491 31.3105 99.6358 31.077 99.542 30.8712Z" fill="#E8DAD6"/>
<path d="M167.26 12.4161C167.035 12.0339 166.804 11.6575 166.574 11.2697C166.445 11.0841 166.251 10.9536 166.03 10.9037C165.81 10.8539 165.579 10.8883 165.382 11.0002C165.186 11.1122 165.038 11.2936 164.969 11.5088C164.899 11.7239 164.912 11.9574 165.006 12.1632C165.231 12.5454 165.456 12.9274 165.686 13.304C165.813 13.4937 166.007 13.6285 166.229 13.6813C166.451 13.7342 166.685 13.7011 166.884 13.5889C167.083 13.4767 167.232 13.2937 167.302 13.0762C167.371 12.8587 167.356 12.6229 167.26 12.4161Z" fill="#E8DAD6"/>
<path d="M150.524 43.1109L148.096 43.6953C146.961 43.965 147.422 45.7185 148.574 45.4656L151.002 44.881C152.115 44.5888 151.654 42.8355 150.524 43.1109Z" fill="#E8DAD6"/>
<path d="M159.583 76.0422L158.235 77.8743C157.543 78.8128 159.128 79.7007 159.808 78.7734L161.163 76.9359C161.82 75.9749 160.241 75.0813 159.583 76.0422Z" fill="#E8DAD6"/>
<path d="M216.276 38.345C216.044 38.3571 215.825 38.4578 215.666 38.6261C215.506 38.7945 215.417 39.0177 215.417 39.2498C215.417 39.4819 215.506 39.7051 215.666 39.8735C215.825 40.0418 216.044 40.1425 216.275 40.1546L216.837 40.1546C217.062 40.1326 217.27 40.0276 217.421 39.8604C217.573 39.6931 217.656 39.4755 217.655 39.25C217.655 39.0245 217.57 38.8073 217.418 38.641C217.265 38.4747 217.056 38.3712 216.832 38.3506L216.276 38.345Z" fill="#E8DAD6"/>
<path d="M255.423 26.2849L256.378 24.9924C257.064 24.0595 255.49 23.1716 254.804 24.0932L253.855 25.3914C253.147 26.313 254.726 27.2065 255.423 26.2849Z" fill="#E8DAD6"/>
<path d="M206.289 99.4596L206.154 101.685C206.104 102.86 207.896 102.843 207.964 101.685L208.093 99.454C208.132 98.3019 206.334 98.3132 206.289 99.4596Z" fill="#E8DAD6"/>
<path d="M241.025 78.0649L241.171 80.4589C241.227 81.6391 243.054 81.6222 242.981 80.4589L242.835 78.0649C242.756 76.9072 240.952 76.9017 241.025 78.0649Z" fill="#E8DAD6"/>
</svg>
